# xmcd
#
# Track frame offsets: 
#        150
#        11145
#        24167
#        37717
#        51904
#        61078
#        75429
#        89547
#        103766
#        117891
#        128275
#        139914
#        150236
#
# Disc length: 2161 seconds
#
# Revision: 2
# Processed by: cddbd v1.5.2PL0 Copyright (c) Steve Scherf et al.
# Submitted via: ExactAudioCopy v1.3
#
DISCID=8e086f0d
DTITLE=J.B. Lenoir - The Parrot Sessions
DYEAR=2003
DGENRE=Blues
TTITLE0=Mama, Talk To Your Daughter
TTITLE1=Eisenhower Blues
TTITLE2=Sittin' Down Thinkin'
TTITLE3=What Have I Done
TTITLE4=Mama, Your Daughter's Gonna Miss Me
TTITLE5=I'm In Korea
TTITLE6=We Got To Realize (We Can't Go On This Way)
TTITLE7=I Lost My Baby
TTITLE8=Man, Watch Your Women
TTITLE9=Give Me One More Shot
TTITLE10=Fine Girls
TTITLE11=I'm Gonna Die Someday
TTITLE12=Eisenhower Blues - Take 1
EXTD=YEAR: 2003
EXTT0=
EXTT1=
EXTT2=
EXTT3=
EXTT4=
EXTT5=
EXTT6=
EXTT7=
EXTT8=
EXTT9=
EXTT10=
EXTT11=
EXTT12=
PLAYORDER=
